PathFileType  4	(X/Y/Z) C:\Users\antoi\Documents\MyRepositories\mobilecap\ResultsAnalysis
DataRate	CameraRate	NumFrames	NumMarkers	Units	OrigDataRate	OrigDataStartFrame	OrigNumFrames
100.0	100.0	4	51	mm	100.0	18	136
Frame#	Time	r_knee			r_shank_antsup			r_ankle			r_calc			r_5meta			r_toe			L_knee			L_shank_antsup			L_ankle			L_calc			L_5meta			L_toe			r_sh2			r_sh3			r_sh4			L_sh2			L_sh3			r_thigh1			r_thigh2			r_thigh3			r_thigh4			r_thigh5			L_thigh1			L_thigh2			L_thigh3			L_thigh4			r.ASIS			r.PSIS			L.ASIS			L.PSIS			C7			R_Shoulder			L_Shoulder			R_Sternum			L_Sternum			R_humerus			R_elbow_med			R_elbow_lat			R_forearm			R_wrist_radius			R_wrist_ulna			L_humerus			L_elbow_med			L_elbow_lat			L_forearm			L_wrist_radius			L_wrist_ulna			R_HJC			L_HJC			R_HJC_reg			L_HJC_reg			
		X1	Y1	Z1	X2	Y2	Z2	X3	Y3	Z3	X4	Y4	Z4	X5	Y5	Z5	X6	Y6	Z6	X7	Y7	Z7	X8	Y8	Z8	X9	Y9	Z9	X10	Y10	Z10	X11	Y11	Z11	X12	Y12	Z12	X13	Y13	Z13	X14	Y14	Z14	X15	Y15	Z15	X16	Y16	Z16	X17	Y17	Z17	X18	Y18	Z18	X19	Y19	Z19	X20	Y20	Z20	X21	Y21	Z21	X22	Y22	Z22	X23	Y23	Z23	X24	Y24	Z24	X25	Y25	Z25	X26	Y26	Z26	X27	Y27	Z27	X28	Y28	Z28	X29	Y29	Z29	X30	Y30	Z30	X31	Y31	Z31	X32	Y32	Z32	X33	Y33	Z33	X34	Y34	Z34	X35	Y35	Z35	X36	Y36	Z36	X37	Y37	Z37	X38	Y38	Z38	X39	Y39	Z39	X40	Y40	Z40	X41	Y41	Z41	X42	Y42	Z42	X43	Y43	Z43	X44	Y44	Z44	X45	Y45	Z45	X46	Y46	Z46	X47	Y47	Z47	X48	Y48	Z48	X49	Y49	Z49	X50	Y50	Z50	X51	Y51	Z51	

18	0.17000000	160.24524	467.09690	-107.55916	209.14464	357.53511	-135.20453	148.92985	85.16352	-171.90017	102.26292	55.03536	-228.73720	261.42906	39.34453	-144.27319	300.77667	58.71394	-185.65220	48.25363	429.02204	-396.83191	2.60285	324.49022	-357.61935	-279.94371	238.24479	-383.24921	-329.01118	268.34515	-337.50049	-286.73156	101.06621	-387.88136	-252.57568	79.49748	-334.21508	204.83621	246.67648	-158.39425	155.48326	344.98185	-81.33096	135.34746	237.65323	-110.79580	-10.87621	379.79231	-423.19537	-115.73876	321.00952	-435.81512	166.07597	782.03336	-95.04569	201.53084	676.34788	-102.88048	167.77623	637.89345	-57.72530	75.94256	746.16809	-42.65081	111.37235	638.22237	-49.22214	105.76691	719.94321	-401.59338	127.44832	584.68518	-406.07839	-2.39607	708.99176	-424.72716	17.48242	569.88709	-415.63361	144.69194	928.06865	-124.42852	-45.62129	959.60831	-184.71233	136.11855	899.67476	-364.91851	-50.49912	949.09694	-302.01839	-37.24212	1406.34520	-232.87152	11.81451	1372.69894	-80.32100	31.50926	1389.21892	-388.25558	91.54935	1361.40578	-210.19027	93.25900	1360.08724	-253.76752	20.62742	1242.43791	-16.71045	-51.99264	1051.10839	-87.02631	-47.60708	1058.31427	-11.42051	-16.20322	937.11140	18.51086	-2.33138	834.67810	27.06286	-41.76689	834.11593	33.07632	70.28661	1246.73758	-456.57695	32.29091	1045.35789	-412.32754	40.07663	1061.08245	-483.00023	115.85566	992.74386	-506.72606	192.68606	887.78920	-498.25399	168.80146	872.47645	-515.12650	54.06213	852.64489	-136.30379	51.12783	828.22411	-324.07686	72.90702	850.96788	-148.55150	66.29381	836.69950	-307.68505	
19	0.18000000	163.95667	467.10132	-105.86269	211.53480	356.75367	-133.44905	149.15419	85.11863	-171.83078	102.26794	55.09843	-228.64444	261.46533	39.08584	-144.10689	300.77327	58.54349	-185.42654	75.18145	431.10045	-395.93770	28.81036	326.89954	-355.61717	-254.16986	244.39222	-383.62817	-303.41699	274.88114	-338.35473	-261.92077	107.32779	-388.15157	-227.67594	85.72446	-334.51116	206.22230	246.09397	-157.13745	157.33741	344.63686	-80.08872	136.22416	237.63755	-110.17964	17.52755	381.57462	-422.32375	-87.94487	324.04331	-435.70396	176.14717	782.24468	-93.90913	209.69231	675.80437	-101.53720	175.26561	638.02819	-56.34564	85.44213	747.96628	-41.33276	118.83951	639.46022	-47.84373	121.08448	722.87463	-400.97614	147.65959	588.58682	-405.90899	12.95706	708.31148	-423.01451	38.17342	569.83323	-414.07156	156.54532	929.38176	-124.12326	-33.78717	961.68397	-183.12770	147.24530	901.64139	-364.78217	-39.37203	950.26837	-300.34462	-25.42079	1408.34389	-231.45041	24.74025	1374.85722	-79.15294	42.34344	1391.02777	-387.27165	103.53174	1363.46101	-209.48071	104.82382	1362.12018	-253.09954	35.24446	1244.63873	-15.64803	-37.09292	1052.65449	-84.43975	-30.80160	1059.58900	-9.09074	4.18531	938.95459	19.89691	20.99990	837.03065	27.85840	-18.23325	835.26990	34.57232	80.11515	1248.12612	-455.35064	40.60962	1047.23355	-410.18623	48.51938	1062.63787	-480.96679	122.35926	992.67008	-505.19825	196.31395	885.44687	-497.13546	172.03153	870.84485	-514.06377	66.15160	854.14951	-135.52263	62.21472	829.95558	-323.30414	84.51171	853.77937	-147.42061	76.93124	838.27454	-306.47593	
20	0.19000000	167.39537	467.19219	-104.17866	213.76595	356.05764	-131.73489	149.31928	85.09243	-171.70843	102.29300	55.16109	-228.54950	261.49824	38.83409	-143.89901	300.73842	58.39207	-185.16739	101.67920	434.05155	-394.96212	55.14071	329.83099	-353.63147	-227.78266	249.26496	-383.58972	-277.60202	279.27490	-338.62321	-234.42762	112.40526	-388.41093	-199.57668	91.23096	-334.90173	207.47809	245.58556	-155.87998	159.03567	344.37810	-78.86885	136.98910	237.69322	-109.55205	45.59894	384.01654	-421.25149	-60.12441	327.12970	-435.31745	185.67154	782.29594	-92.58062	217.53038	675.22288	-99.95401	182.13889	638.11477	-54.86621	94.26638	749.53250	-40.08981	125.70402	640.60266	-46.59052	136.24382	726.29836	-400.43502	167.63929	593.17188	-405.60333	28.26351	708.18491	-421.33066	58.80450	570.48572	-412.56599	168.12459	930.65892	-123.81233	-22.17427	963.76154	-181.57347	158.19264	903.73805	-364.77446	-28.39375	951.59542	-298.62403	-13.65856	1410.34952	-230.02280	37.64906	1376.91426	-78.00898	52.96618	1392.76494	-386.41701	115.43102	1365.43518	-208.85328	116.40214	1364.12655	-252.50985	49.84355	1246.73674	-14.65649	-22.32837	1054.08936	-81.71466	-13.81975	1060.71986	-6.69521	24.71290	940.88062	21.29232	44.66206	839.49206	28.53392	5.66549	836.51806	36.07902	89.67592	1249.35418	-454.23603	48.73815	1048.94314	-408.12833	56.79997	1064.04652	-478.99867	128.66896	992.54343	-503.73788	199.77222	883.13426	-496.15071	175.06994	869.25311	-513.13420	78.00371	855.61967	-134.84037	73.08641	831.82041	-322.65046	95.85514	856.47649	-146.43238	87.39744	839.92805	-305.49992	
21	0.20000000	170.68803	467.32664	-102.62091	215.99410	355.44548	-130.21777	149.42312	85.10544	-171.54683	102.34181	55.21245	-228.47097	261.53035	38.59674	-143.67105	300.70580	58.24492	-184.90539	127.76029	437.74450	-393.90375	81.66606	333.24052	-351.77688	-200.79785	252.76973	-383.16607	-251.42351	281.63446	-338.26026	-204.85637	116.15700	-388.70945	-168.91617	95.66936	-335.48635	208.70780	245.13793	-154.75386	160.77563	344.20587	-77.76419	137.80462	237.81961	-108.96416	73.24115	387.12999	-420.00233	-32.37138	330.23832	-434.63656	194.75155	782.12113	-91.09810	225.14548	674.54977	-98.19173	188.51815	638.09438	-53.34532	102.55089	750.86806	-38.93563	132.09136	641.62616	-45.47405	151.29133	730.16745	-399.92818	187.45505	598.37374	-405.12702	43.61437	708.49947	-419.75219	79.43932	571.78782	-411.21452	179.45921	931.91541	-123.36400	-10.75442	965.83014	-180.11905	168.99519	905.96319	-364.70963	-17.50557	953.14995	-296.97129	-1.95328	1412.34241	-228.57385	50.50738	1378.87089	-76.91009	63.42984	1394.44100	-385.67155	127.24142	1367.32198	-208.31375	128.00369	1366.09331	-252.00532	64.39420	1248.74816	-13.74291	-7.63485	1055.41141	-78.88786	3.32088	1061.73654	-4.26662	45.34194	942.91769	22.68229	68.60657	842.11799	29.11224	29.87761	837.90761	37.56889	98.99221	1250.44493	-453.23895	56.69656	1050.52773	-406.11935	64.86065	1065.34313	-477.07556	134.76521	992.39908	-502.32311	203.03917	880.90243	-495.26971	177.92596	867.75214	-512.30959	89.56416	857.08138	-134.21159	83.81388	833.83081	-322.07069	106.96555	858.98693	-145.50461	97.76476	841.70615	-304.65877	
